<svg xmlns="http://www.w3.org/2000/svg" viewBox="0 0 400 400">
	<g fill="#000" opacity="0.1">
		<path d="M69.7,0.7c-0.1-0.2-0.3-0.4-0.4-0.7h-1.6c0.2,0.3,0.4,0.6,0.5,0.9C68.7,0.8,69.2,0.7,69.7,0.7L69.7,0.7z" />
		<path d="M49.5,6c-1.5-2.1-3.1-4.1-4.8-6h-2c1.9,2.1,3.7,4.3,5.4,6.6C48.6,6.4,49,6.2,49.5,6L49.5,6z" />
		<path d="M30.9,16.9c0.4-0.3,0.7-0.6,1.1-0.9C24.7,6.3,13.1,0,0,0v1.4C12.6,1.4,23.8,7.5,30.9,16.9L30.9,16.9z" />
		<path d="M0,20v1.4c7.2,0,13.4,4,16.5,10c0.3-0.4,0.6-0.8,1-1.2C14,24.1,7.5,20,0,20L0,20z" />
		<path
			d="M229.7,0.7c-0.1-0.2-0.3-0.4-0.4-0.7h-1.6c0.2,0.3,0.4,0.6,0.5,0.9C228.7,0.8,229.1,0.7,229.7,0.7L229.7,0.7z" />
		<path d="M91.8,0.9C92,0.6,92.2,0.3,92.3,0h-1.6c-0.1,0.2-0.3,0.4-0.4,0.7C90.8,0.7,91.3,0.8,91.8,0.9L91.8,0.9z" />
		<path d="M111.9,6.6c1.6-2.3,3.4-4.6,5.4-6.6h-2c-1.7,1.9-3.3,3.9-4.8,6C111,6.2,111.4,6.4,111.9,6.6L111.9,6.6z" />
		<path d="M209.5,6c-1.5-2.1-3.1-4.1-4.8-6h-2c1.9,2.1,3.7,4.3,5.4,6.6C208.5,6.4,209,6.2,209.5,6L209.5,6z" />
		<path d="M128,16c0.4,0.3,0.8,0.6,1.1,0.9c7-9.4,18.2-15.4,30.9-15.4c12.6,0,23.8,6.1,30.9,15.4c0.4-0.3,0.7-0.6,1.1-0.9
		c-7.3-9.7-18.9-16-32-16C146.9,0,135.3,6.3,128,16L128,16z" />
		<path d="M160,21.4c7.2,0,13.4,4,16.5,10c0.3-0.4,0.6-0.8,1-1.2c-3.4-6-10-10.2-17.4-10.2s-14,4.1-17.4,10.2c0.3,0.4,0.6,0.8,1,1.2
		C146.6,25.5,152.8,21.4,160,21.4L160,21.4z" />
		<path
			d="M251.8,0.9c0.2-0.3,0.4-0.6,0.5-0.9h-1.6c-0.1,0.2-0.3,0.4-0.4,0.7C250.8,0.7,251.3,0.8,251.8,0.9L251.8,0.9z" />
		<path
			d="M389.6,0.7c-0.1-0.2-0.3-0.4-0.4-0.7h-1.6c0.2,0.3,0.4,0.6,0.5,0.9C388.6,0.8,389.1,0.7,389.6,0.7L389.6,0.7z" />
		<path d="M369.4,6c-1.5-2.1-3.1-4.1-4.8-6h-2c1.9,2.1,3.7,4.3,5.4,6.6C368.5,6.4,369,6.2,369.4,6L369.4,6z" />
		<path d="M271.9,6.6c1.6-2.3,3.4-4.6,5.4-6.6h-2c-1.7,1.9-3.3,3.9-4.8,6C271,6.2,271.4,6.4,271.9,6.6L271.9,6.6z" />
		<path d="M288,16c0.4,0.3,0.8,0.6,1.1,0.9c7-9.4,18.2-15.4,30.9-15.4c12.6,0,23.8,6.1,30.9,15.4c0.4-0.3,0.7-0.6,1.1-0.9
		C344.7,6.3,333,0,320,0C306.9,0,295.3,6.3,288,16L288,16z" />
		<path d="M320,21.4c7.2,0,13.4,4,16.5,10c0.3-0.4,0.6-0.8,1-1.2c-3.4-6-10-10.2-17.4-10.2s-14,4.1-17.4,10.2c0.3,0.4,0.6,0.8,1,1.2
		C306.6,25.5,312.8,21.4,320,21.4L320,21.4z" />
		<path
			d="M68.2,0.9c-6.5,1-12.8,2.7-18.7,5.2c-0.4,0.2-0.9,0.4-1.4,0.6C42.4,9.1,37,12.3,32,16c-0.4,0.3-0.8,0.6-1.1,0.9
		c-5,3.9-9.5,8.4-13.5,13.3c-0.3,0.4-0.6,0.8-1,1.2c-2.2,2.9-4.3,6-6.1,9.3c0.5,0.1,1,0.1,1.5,0.2c3.4-5.9,7.6-11.5,12.6-16.4
		C39.3,9.6,59,1.4,80,1.4s40.7,8.2,55.6,23c5,5,9.2,10.5,12.6,16.4c0.5-0.1,1-0.2,1.5-0.2c-1.8-3.2-3.9-6.3-6.1-9.3
		c-0.3-0.4-0.6-0.8-1-1.2c-4-5-8.4-9.4-13.4-13.3c-0.4-0.3-0.7-0.6-1.1-0.8c-5-3.7-10.4-6.9-16.1-9.4c-0.4-0.2-0.9-0.4-1.4-0.6
		c-5.9-2.4-12.2-4.2-18.7-5.2c-0.5-0.1-1-0.2-1.5-0.2C87,0.2,83.5,0,80,0s-7,0.2-10.3,0.7C69.2,0.7,68.7,0.8,68.2,0.9L68.2,0.9z" />
		<path d="M80,21.4c19.9,0,37.5,10,48.1,25.2c0.4-0.2,0.9-0.4,1.4-0.6c-10.8-15.7-29-26-49.5-26S41.4,30.3,30.5,46
		c0.4,0.2,0.9,0.4,1.4,0.6C42.5,31.4,60.1,21.4,80,21.4L80,21.4z" />
		<path d="M80,41.4c12.6,0,23.8,6.1,30.9,15.4c0.4-0.3,0.7-0.6,1.1-0.8c-7.3-9.7-18.9-16-32-16s-24.7,6.3-32,16
		c0.4,0.3,0.8,0.6,1.1,0.9C56.2,47.5,67.4,41.4,80,41.4L80,41.4z" />
		<path d="M80,61.4c7.2,0,13.4,4,16.5,10c0.3-0.4,0.6-0.8,1-1.2C94,64.1,87.5,60,80,60s-14,4.1-17.4,10.2c0.3,0.4,0.6,0.8,1,1.2
		C66.6,65.5,72.8,61.4,80,61.4L80,61.4z" />
		<path d="M228.2,0.9c-6.5,1-12.8,2.7-18.7,5.2c-0.4,0.2-0.9,0.4-1.4,0.6c-5.8,2.5-11.2,5.7-16.1,9.4c-0.4,0.3-0.8,0.6-1.1,0.9
		c-5,3.9-9.5,8.4-13.4,13.3c-0.3,0.4-0.6,0.8-1,1.2c-2.2,2.9-4.3,6-6.1,9.3c0.5,0.1,1,0.1,1.5,0.2c3.4-5.9,7.6-11.5,12.6-16.4
		c14.8-14.8,34.6-23,55.6-23c21,0,40.7,8.2,55.6,23c5,5,9.2,10.5,12.6,16.4c0.5-0.1,1-0.2,1.5-0.2c-1.8-3.2-3.9-6.3-6.1-9.3
		c-0.3-0.4-0.6-0.8-1-1.2c-4-5-8.4-9.4-13.4-13.3c-0.4-0.3-0.7-0.6-1.1-0.9c-5-3.7-10.4-6.9-16.1-9.4c-0.4-0.2-0.9-0.4-1.4-0.6
		c-5.9-2.4-12.2-4.2-18.7-5.2c-0.5-0.1-1-0.2-1.5-0.2C246.9,0.2,243.5,0,240,0s-7,0.2-10.3,0.7C229.1,0.7,228.7,0.8,228.2,0.9
		L228.2,0.9z" />
		<path d="M240,21.4c19.9,0,37.5,10,48.1,25.2c0.4-0.2,0.9-0.4,1.4-0.6c-10.8-15.7-29-26-49.5-26s-38.6,10.3-49.5,26
		c0.4,0.2,0.9,0.4,1.4,0.6C202.5,31.4,220.1,21.4,240,21.4L240,21.4z" />
		<path d="M240,41.4c12.6,0,23.8,6.1,30.9,15.4c0.4-0.3,0.7-0.6,1.1-0.8c-7.3-9.7-18.9-16-32-16s-24.7,6.3-32,16
		c0.4,0.3,0.8,0.6,1.1,0.9C216.2,47.5,227.4,41.4,240,41.4L240,41.4z" />
		<path d="M240,61.4c7.2,0,13.4,4,16.5,10c0.3-0.4,0.6-0.8,1-1.2c-3.4-6-10-10.2-17.4-10.2s-14,4.1-17.4,10.2c0.3,0.4,0.6,0.8,1,1.2
		C226.6,65.5,232.8,61.4,240,61.4L240,61.4z" />
		<path d="M388.2,0.9c-6.5,1-12.8,2.7-18.7,5.2c-0.4,0.2-0.9,0.4-1.4,0.6c-5.8,2.5-11.2,5.7-16.1,9.4c-0.4,0.3-0.8,0.6-1.1,0.9
		c-5,3.9-9.5,8.4-13.4,13.3c-0.3,0.4-0.6,0.8-1,1.2c-2.2,2.9-4.3,6-6.1,9.3c0.5,0.1,1,0.1,1.5,0.2c3.4-5.9,7.6-11.5,12.6-16.4
		c14.8-14.8,34.6-23,55.6-23V0c-3.5,0-7,0.2-10.3,0.7C389.1,0.7,388.6,0.8,388.2,0.9L388.2,0.9z" />
		<path
			d="M350.5,46c0.4,0.2,0.9,0.4,1.4,0.6C362.4,31.4,380,21.4,400,21.4l0-1.4C379.4,20,361.3,30.3,350.5,46L350.5,46z" />
		<path d="M368,56c0.4,0.3,0.8,0.6,1.1,0.9c7-9.4,18.2-15.4,30.9-15.4l0-1.4C386.9,40,375.2,46.3,368,56L368,56z" />
		<path d="M382.6,70.2c0.3,0.4,0.6,0.8,1,1.2c3.1-5.9,9.3-10,16.5-10V60C392.5,60,386,64.1,382.6,70.2L382.6,70.2z" />
		<path d="M63.5,71.4c-0.3-0.4-0.6-0.8-1-1.2c-4-5-8.4-9.4-13.4-13.3c-0.4-0.3-0.7-0.6-1.1-0.9c-5-3.7-10.4-6.9-16.1-9.4
		c-0.4-0.2-0.9-0.4-1.4-0.6c-5.9-2.4-12.2-4.2-18.7-5.2c-0.5-0.1-1-0.2-1.5-0.2C7,40.2,3.5,40,0,40v1.4c21,0,40.7,8.2,55.6,23
		c5,5,9.2,10.5,12.6,16.4c0.5-0.1,1-0.2,1.5-0.2C67.8,77.4,65.8,74.3,63.5,71.4L63.5,71.4z" />
		<path d="M0,60v1.4c19.9,0,37.5,10,48.1,25.2c0.4-0.2,0.9-0.4,1.4-0.6C38.6,70.3,20.5,60,0,60L0,60z" />
		<path d="M0,80v1.4c12.6,0,23.8,6.1,30.9,15.4c0.4-0.3,0.7-0.6,1.1-0.8C24.7,86.3,13.1,80,0,80L0,80z" />
		<path d="M0,100v1.4c7.2,0,13.4,4,16.5,10c0.3-0.4,0.6-0.8,1-1.2C14,104.1,7.5,100,0,100L0,100z" />
		<path d="M128.1,46.6c-5.8,2.5-11.2,5.7-16.1,9.4c-0.4,0.3-0.8,0.6-1.1,0.9c-5,3.9-9.5,8.4-13.4,13.3c-0.3,0.4-0.6,0.8-1,1.2
		c-2.2,2.9-4.3,6-6.1,9.3c0.5,0.1,1,0.1,1.5,0.2c3.4-5.9,7.6-11.5,12.6-16.4c14.8-14.8,34.6-23,55.6-23c21,0,40.7,8.2,55.6,23
		c5,5,9.2,10.5,12.6,16.4c0.5-0.1,1-0.2,1.5-0.2c-1.8-3.2-3.9-6.3-6.1-9.3c-0.3-0.4-0.6-0.8-1-1.2c-4-5-8.4-9.4-13.4-13.3
		c-0.4-0.3-0.7-0.6-1.1-0.9c-5-3.7-10.4-6.9-16.1-9.4c-0.4-0.2-0.9-0.4-1.4-0.6c-5.9-2.4-12.2-4.2-18.7-5.2c-0.5-0.1-1-0.2-1.5-0.2
		c-3.4-0.4-6.8-0.7-10.3-0.7s-7,0.2-10.3,0.7c-0.5,0.1-1,0.1-1.5,0.2c-6.5,1-12.8,2.7-18.7,5.2C129,46.2,128.6,46.4,128.1,46.6
		L128.1,46.6z" />
		<path d="M160,61.4c19.9,0,37.5,10,48.1,25.2c0.4-0.2,0.9-0.4,1.4-0.6c-10.8-15.7-29-26-49.5-26s-38.6,10.3-49.5,26
		c0.4,0.2,0.9,0.4,1.4,0.6C122.5,71.4,140.1,61.4,160,61.4L160,61.4z" />
		<path d="M160,81.4c12.6,0,23.8,6.1,30.9,15.4c0.4-0.3,0.7-0.6,1.1-0.8c-7.3-9.7-18.9-16-32-16c-13.1,0-24.7,6.3-32,16
		c0.4,0.3,0.8,0.6,1.1,0.9C136.2,87.5,147.4,81.4,160,81.4L160,81.4z" />
		<path d="M160,101.4c7.2,0,13.4,4,16.5,10c0.3-0.4,0.6-0.8,1-1.2c-3.4-6-10-10.2-17.4-10.2s-14,4.1-17.4,10.2c0.3,0.4,0.6,0.8,1,1.2
		C146.6,105.5,152.8,101.4,160,101.4L160,101.4z" />
		<path d="M288.1,46.6c-5.8,2.5-11.2,5.7-16.1,9.4c-0.4,0.3-0.8,0.6-1.1,0.9c-5,3.9-9.5,8.4-13.4,13.3c-0.3,0.4-0.6,0.8-1,1.2
		c-2.2,2.9-4.3,6-6.1,9.3c0.5,0.1,1,0.1,1.5,0.2c3.4-5.9,7.6-11.5,12.6-16.4c14.8-14.8,34.6-23,55.6-23c21,0,40.7,8.2,55.6,23
		c5,5,9.2,10.5,12.6,16.4c0.5-0.1,1-0.2,1.5-0.2c-1.8-3.2-3.9-6.3-6.1-9.3c-0.3-0.4-0.6-0.8-1-1.2c-4-5-8.4-9.4-13.4-13.3
		c-0.4-0.3-0.7-0.6-1.1-0.9c-5-3.7-10.4-6.9-16.1-9.4c-0.4-0.2-0.9-0.4-1.4-0.6c-5.9-2.4-12.2-4.2-18.7-5.2c-0.5-0.1-1-0.2-1.5-0.2
		c-3.4-0.4-6.8-0.7-10.3-0.7c-3.5,0-7,0.2-10.3,0.7c-0.5,0.1-1,0.1-1.5,0.2c-6.5,1-12.8,2.7-18.7,5.2
		C289,46.2,288.5,46.4,288.1,46.6L288.1,46.6z" />
		<path d="M320,60c-20.5,0-38.6,10.3-49.5,26c0.4,0.2,0.9,0.4,1.4,0.6C282.5,71.4,300,61.4,320,61.4c19.9,0,37.5,10,48.1,25.2
		c0.4-0.2,0.9-0.4,1.4-0.6C358.6,70.3,340.5,60,320,60L320,60z" />
		<path d="M320,80c-13.1,0-24.7,6.3-32,16c0.4,0.3,0.8,0.6,1.1,0.9c7-9.4,18.2-15.4,30.9-15.4c12.6,0,23.8,6.1,30.9,15.4
		c0.4-0.3,0.7-0.6,1.1-0.9C344.7,86.3,333,80,320,80L320,80z" />
		<path d="M320,100c-7.5,0-14,4.1-17.4,10.2c0.3,0.4,0.6,0.8,1,1.2c3.1-5.9,9.3-10,16.5-10s13.4,4,16.5,10c0.3-0.4,0.6-0.8,1-1.2
		C334,104.1,327.4,100,320,100L320,100z" />
		<path d="M24.4,104.4c14.8-14.8,34.6-23,55.6-23c21,0,40.7,8.2,55.6,23c5,5,9.2,10.5,12.6,16.4c0.5-0.1,1-0.2,1.5-0.2
		c-1.8-3.2-3.9-6.3-6.1-9.3c-0.3-0.4-0.6-0.8-1-1.2c-4-5-8.4-9.4-13.4-13.3c-0.4-0.3-0.7-0.6-1.1-0.9c-5-3.7-10.4-6.9-16.1-9.4
		c-0.4-0.2-0.9-0.4-1.4-0.6c-5.9-2.4-12.2-4.2-18.7-5.2c-0.5-0.1-1-0.2-1.5-0.2C86.9,80.2,83.5,80,80,80s-7,0.2-10.3,0.7
		c-0.5,0.1-1,0.1-1.5,0.2c-6.5,1-12.8,2.7-18.7,5.2c-0.4,0.2-0.9,0.4-1.4,0.6C42.4,89.1,37,92.3,32,96c-0.4,0.3-0.8,0.6-1.1,0.9
		c-5,3.9-9.5,8.4-13.4,13.3c-0.3,0.4-0.6,0.8-1,1.2c-2.2,2.9-4.3,6-6.1,9.3c0.5,0.1,1,0.1,1.5,0.2C15.2,114.9,19.4,109.4,24.4,104.4
		L24.4,104.4z" />
		<path d="M80,101.4c19.9,0,37.5,10,48.1,25.2c0.4-0.2,0.9-0.4,1.4-0.6c-10.8-15.7-29-26-49.5-26s-38.6,10.3-49.5,26
		c0.4,0.2,0.9,0.4,1.4,0.6C42.5,111.4,60.1,101.4,80,101.4L80,101.4z" />
		<path d="M80,121.4c12.6,0,23.8,6.1,30.9,15.4c0.4-0.3,0.7-0.6,1.1-0.8c-7.3-9.7-18.9-16-32-16s-24.7,6.3-32,16
		c0.4,0.3,0.8,0.6,1.1,0.9C56.2,127.5,67.4,121.4,80,121.4L80,121.4z" />
		<path d="M80,141.4c7.2,0,13.4,4,16.5,10c0.3-0.4,0.6-0.8,1-1.2c-3.4-6-10-10.2-17.4-10.2s-14,4.1-17.4,10.2c0.3,0.4,0.6,0.8,1,1.2
		C66.6,145.5,72.8,141.4,80,141.4L80,141.4z" />
		<path d="M208.1,86.6c-5.8,2.5-11.2,5.7-16.1,9.4c-0.4,0.3-0.8,0.6-1.1,0.9c-5,3.9-9.5,8.4-13.4,13.3c-0.3,0.4-0.6,0.8-1,1.2
		c-2.2,2.9-4.3,6-6.1,9.3c0.5,0.1,1,0.1,1.5,0.2c3.4-5.9,7.6-11.5,12.6-16.4c14.8-14.8,34.6-23,55.6-23c21,0,40.7,8.2,55.6,23
		c5,5,9.2,10.5,12.6,16.4c0.5-0.1,1-0.2,1.5-0.2c-1.8-3.2-3.9-6.3-6.1-9.3c-0.3-0.4-0.6-0.8-1-1.2c-4-5-8.4-9.4-13.4-13.3
		c-0.4-0.3-0.7-0.6-1.1-0.9c-5-3.7-10.4-6.9-16.1-9.4c-0.4-0.2-0.9-0.4-1.4-0.6c-5.9-2.4-12.2-4.2-18.7-5.2c-0.5-0.1-1-0.2-1.5-0.2
		c-3.4-0.4-6.8-0.7-10.3-0.7s-7,0.2-10.3,0.7c-0.5,0.1-1,0.1-1.5,0.2c-6.5,1-12.8,2.7-18.7,5.2C209,86.2,208.5,86.4,208.1,86.6
		L208.1,86.6z" />
		<path d="M240,100c-20.5,0-38.6,10.3-49.5,26c0.4,0.2,0.9,0.4,1.4,0.6c10.6-15.2,28.2-25.2,48.1-25.2c19.9,0,37.5,10,48.1,25.2
		c0.4-0.2,0.9-0.4,1.4-0.6C278.6,110.3,260.5,100,240,100L240,100z" />
		<path d="M240,120c-13.1,0-24.7,6.3-32,16c0.4,0.3,0.8,0.6,1.1,0.9c7-9.4,18.2-15.4,30.9-15.4c12.6,0,23.8,6.1,30.9,15.4
		c0.4-0.3,0.7-0.6,1.1-0.9C264.7,126.3,253.1,120,240,120L240,120z" />
		<path d="M240,140c-7.5,0-14,4.1-17.4,10.2c0.3,0.4,0.6,0.8,1,1.2c3.1-5.9,9.3-10,16.5-10c7.2,0,13.4,4,16.5,10
		c0.3-0.4,0.6-0.8,1-1.2C254,144.1,247.5,140,240,140L240,140z" />
		<path d="M388.2,80.9c-6.5,1-12.8,2.7-18.7,5.2c-0.4,0.2-0.9,0.4-1.4,0.6c-5.8,2.5-11.2,5.7-16.1,9.4c-0.4,0.3-0.8,0.6-1.1,0.9
		c-5,3.9-9.5,8.4-13.4,13.3c-0.3,0.4-0.6,0.8-1,1.2c-2.2,2.9-4.3,6-6.1,9.3c0.5,0.1,1,0.1,1.5,0.2c3.4-5.9,7.6-11.5,12.6-16.4
		c14.8-14.8,34.6-23,55.6-23l0-1.4c-3.5,0-7,0.2-10.3,0.7C389.1,80.7,388.6,80.8,388.2,80.9L388.2,80.9z" />
		<path
			d="M350.5,126c0.4,0.2,0.9,0.4,1.4,0.6c10.6-15.2,28.2-25.2,48.1-25.2l0-1.4C379.4,100,361.3,110.3,350.5,126L350.5,126z" />
		<path d="M368,136c0.4,0.3,0.8,0.6,1.1,0.9c7-9.4,18.2-15.4,30.9-15.4l0-1.4C386.9,120,375.2,126.3,368,136L368,136z" />
		<path
			d="M382.6,150.2c0.3,0.4,0.6,0.8,1,1.2c3.1-5.9,9.3-10,16.5-10V140C392.5,140,386,144.1,382.6,150.2L382.6,150.2z" />
		<path d="M63.5,151.4c-0.3-0.4-0.6-0.8-1-1.2c-4-5-8.4-9.4-13.4-13.3c-0.4-0.3-0.7-0.6-1.1-0.9c-5-3.7-10.4-6.9-16.1-9.4
		c-0.4-0.2-0.9-0.4-1.4-0.6c-5.9-2.4-12.2-4.2-18.7-5.2c-0.5-0.1-1-0.2-1.5-0.2C7,120.2,3.5,120,0,120v1.4c21,0,40.7,8.2,55.6,23
		c5,5,9.2,10.5,12.6,16.4c0.5-0.1,1-0.2,1.5-0.2C67.8,157.4,65.8,154.3,63.5,151.4L63.5,151.4z" />
		<path d="M0,140v1.4c19.9,0,37.5,10,48.1,25.2c0.4-0.2,0.9-0.4,1.4-0.6C38.6,150.3,20.5,140,0,140L0,140z" />
		<path d="M0,160v1.4c12.6,0,23.8,6.1,30.9,15.4c0.4-0.3,0.7-0.6,1.1-0.8C24.7,166.3,13.1,160,0,160L0,160z" />
		<path d="M0,180v1.4c7.2,0,13.4,4,16.5,10c0.3-0.4,0.6-0.8,1-1.2C14,184.1,7.5,180,0,180L0,180z" />
		<path d="M160,121.4c21,0,40.7,8.2,55.6,23c5,5,9.2,10.5,12.6,16.4c0.5-0.1,1-0.2,1.5-0.2c-1.8-3.2-3.9-6.3-6.1-9.3
		c-0.3-0.4-0.6-0.8-1-1.2c-4-5-8.4-9.4-13.4-13.3c-0.4-0.3-0.7-0.6-1.1-0.8c-5-3.7-10.4-6.9-16.1-9.4c-0.4-0.2-0.9-0.4-1.4-0.6
		c-5.9-2.4-12.2-4.2-18.7-5.2c-0.5-0.1-1-0.2-1.5-0.2c-3.4-0.4-6.8-0.7-10.3-0.7s-7,0.2-10.3,0.7c-0.5,0.1-1,0.1-1.5,0.2
		c-6.5,1-12.8,2.7-18.7,5.2c-0.4,0.2-0.9,0.4-1.4,0.6c-5.8,2.5-11.2,5.7-16.1,9.4c-0.4,0.3-0.8,0.6-1.1,0.9
		c-5,3.9-9.5,8.4-13.4,13.3c-0.3,0.4-0.6,0.8-1,1.2c-2.2,2.9-4.3,6-6.1,9.3c0.5,0.1,1,0.1,1.5,0.2c3.4-5.9,7.6-11.5,12.6-16.4
		C119.3,129.6,139,121.4,160,121.4L160,121.4z" />
		<path d="M160,141.4c19.9,0,37.5,10,48.1,25.2c0.4-0.2,0.9-0.4,1.4-0.6c-10.8-15.7-29-26-49.5-26s-38.6,10.3-49.5,26
		c0.4,0.2,0.9,0.4,1.4,0.6C122.5,151.4,140.1,141.4,160,141.4L160,141.4z" />
		<path d="M160,161.4c12.6,0,23.8,6.1,30.9,15.4c0.4-0.3,0.7-0.6,1.1-0.8c-7.3-9.7-18.9-16-32-16c-13.1,0-24.7,6.3-32,16
		c0.4,0.3,0.8,0.6,1.1,0.9C136.2,167.5,147.4,161.4,160,161.4L160,161.4z" />
		<path d="M160,181.4c7.2,0,13.4,4,16.5,10c0.3-0.4,0.6-0.8,1-1.2c-3.4-6-10-10.2-17.4-10.2s-14,4.1-17.4,10.2c0.3,0.4,0.6,0.8,1,1.2
		C146.6,185.5,152.8,181.4,160,181.4L160,181.4z" />
		<path d="M309.6,120.7c-0.5,0.1-1,0.1-1.5,0.2c-6.5,1-12.8,2.7-18.7,5.2c-0.4,0.2-0.9,0.4-1.4,0.6c-5.8,2.5-11.2,5.7-16.1,9.4
		c-0.4,0.3-0.8,0.6-1.1,0.9c-5,3.9-9.5,8.4-13.4,13.3c-0.3,0.4-0.6,0.8-1,1.2c-2.2,2.9-4.3,6-6.1,9.3c0.5,0.1,1,0.1,1.5,0.2
		c3.4-5.9,7.6-11.5,12.6-16.4c14.8-14.8,34.6-23,55.6-23c21,0,40.7,8.2,55.6,23c5,5,9.2,10.5,12.6,16.4c0.5-0.1,1-0.2,1.5-0.2
		c-1.8-3.2-3.9-6.3-6.1-9.3c-0.3-0.4-0.6-0.8-1-1.2c-4-5-8.4-9.4-13.4-13.3c-0.4-0.3-0.7-0.6-1.1-0.9c-5-3.7-10.4-6.9-16.1-9.4
		c-0.4-0.2-0.9-0.4-1.4-0.6c-5.9-2.4-12.2-4.2-18.7-5.2c-0.5-0.1-1-0.2-1.5-0.2c-3.4-0.4-6.8-0.7-10.3-0.7S313,120.2,309.6,120.7
		L309.6,120.7z" />
		<path d="M320,140c-20.5,0-38.6,10.3-49.5,26c0.4,0.2,0.9,0.4,1.4,0.6c10.6-15.2,28.2-25.2,48.1-25.2c19.9,0,37.5,10,48.1,25.2
		c0.4-0.2,0.9-0.4,1.4-0.6C358.6,150.3,340.5,140,320,140L320,140z" />
		<path d="M320,160c-13.1,0-24.7,6.3-32,16c0.4,0.3,0.8,0.6,1.1,0.9c7-9.4,18.2-15.4,30.9-15.4c12.6,0,23.8,6.1,30.9,15.4
		c0.4-0.3,0.7-0.6,1.1-0.9C344.7,166.3,333,160,320,160L320,160z" />
		<path d="M320,180c-7.5,0-14,4.1-17.4,10.2c0.3,0.4,0.6,0.8,1,1.2c3.1-5.9,9.3-10,16.5-10s13.4,4,16.5,10c0.3-0.4,0.6-0.8,1-1.2
		C334,184.1,327.4,180,320,180L320,180z" />
		<path d="M24.4,184.4c14.8-14.8,34.6-23,55.6-23c21,0,40.7,8.2,55.6,23c5,5,9.2,10.5,12.6,16.4c0.5-0.1,1-0.2,1.5-0.2
		c-1.8-3.2-3.9-6.3-6.1-9.3c-0.3-0.4-0.6-0.8-1-1.2c-4-5-8.4-9.4-13.4-13.3c-0.4-0.3-0.7-0.6-1.1-0.9c-5-3.7-10.4-6.9-16.1-9.4
		c-0.4-0.2-0.9-0.4-1.4-0.6c-5.9-2.4-12.2-4.2-18.7-5.2c-0.5-0.1-1-0.2-1.5-0.2c-3.4-0.4-6.8-0.7-10.3-0.7s-7,0.2-10.3,0.7
		c-0.5,0.1-1,0.1-1.5,0.2c-6.5,1-12.8,2.7-18.7,5.2c-0.4,0.2-0.9,0.4-1.4,0.6c-5.8,2.5-11.2,5.7-16.1,9.4c-0.4,0.3-0.8,0.6-1.1,0.9
		c-5,3.9-9.5,8.4-13.4,13.3c-0.3,0.4-0.6,0.8-1,1.2c-2.2,2.9-4.3,6-6.1,9.3c0.5,0.1,1,0.1,1.5,0.2C15.2,194.9,19.4,189.4,24.4,184.4
		L24.4,184.4z" />
		<path d="M80,181.4c19.9,0,37.5,10,48.1,25.2c0.4-0.2,0.9-0.4,1.4-0.6c-10.8-15.7-29-26-49.5-26s-38.6,10.3-49.5,26
		c0.4,0.2,0.9,0.4,1.4,0.6C42.5,191.4,60.1,181.4,80,181.4L80,181.4z" />
		<path d="M80,201.4c12.6,0,23.8,6.1,30.9,15.4c0.4-0.3,0.7-0.6,1.1-0.8c-7.3-9.7-18.9-16-32-16s-24.7,6.3-32,16
		c0.4,0.3,0.8,0.6,1.1,0.9C56.2,207.5,67.4,201.4,80,201.4L80,201.4z" />
		<path d="M80,221.4c7.2,0,13.4,4,16.5,10c0.3-0.4,0.6-0.8,1-1.2c-3.4-6-10-10.2-17.4-10.2s-14,4.1-17.4,10.2c0.3,0.4,0.6,0.8,1,1.2
		C66.6,225.5,72.8,221.4,80,221.4L80,221.4z" />
		<path d="M229.7,160.7c-0.5,0.1-1,0.1-1.5,0.2c-6.5,1-12.8,2.7-18.7,5.2c-0.4,0.2-0.9,0.4-1.4,0.6c-5.8,2.5-11.2,5.7-16.1,9.4
		c-0.4,0.3-0.8,0.6-1.1,0.9c-5,3.9-9.5,8.4-13.4,13.3c-0.3,0.4-0.6,0.8-1,1.2c-2.2,2.9-4.3,6-6.1,9.3c0.5,0.1,1,0.1,1.5,0.2
		c3.4-5.9,7.6-11.5,12.6-16.4c14.8-14.8,34.6-23,55.6-23c21,0,40.7,8.2,55.6,23c5,5,9.2,10.5,12.6,16.4c0.5-0.1,1-0.2,1.5-0.2
		c-1.8-3.2-3.9-6.3-6.1-9.3c-0.3-0.4-0.6-0.8-1-1.2c-4-5-8.4-9.4-13.4-13.3c-0.4-0.3-0.7-0.6-1.1-0.9c-5-3.7-10.4-6.9-16.1-9.4
		c-0.4-0.2-0.9-0.4-1.4-0.6c-5.9-2.4-12.2-4.2-18.7-5.2c-0.5-0.1-1-0.2-1.5-0.2c-3.4-0.4-6.8-0.7-10.3-0.7S233,160.2,229.7,160.7
		L229.7,160.7z" />
		<path d="M240,180c-20.5,0-38.6,10.3-49.5,26c0.4,0.2,0.9,0.4,1.4,0.6c10.6-15.2,28.2-25.2,48.1-25.2c19.9,0,37.5,10,48.1,25.2
		c0.4-0.2,0.9-0.4,1.4-0.6C278.6,190.3,260.5,180,240,180L240,180z" />
		<path d="M240,200c-13.1,0-24.7,6.3-32,16c0.4,0.3,0.8,0.6,1.1,0.9c7-9.4,18.2-15.4,30.9-15.4c12.6,0,23.8,6.1,30.9,15.4
		c0.4-0.3,0.7-0.6,1.1-0.9C264.7,206.3,253.1,200,240,200L240,200z" />
		<path d="M240,220c-7.5,0-14,4.1-17.4,10.2c0.3,0.4,0.6,0.8,1,1.2c3.1-5.9,9.3-10,16.5-10c7.2,0,13.4,4,16.5,10
		c0.3-0.4,0.6-0.8,1-1.2C254,224.1,247.5,220,240,220L240,220z" />
		<path d="M388.2,160.9c-6.5,1-12.8,2.7-18.7,5.2c-0.4,0.2-0.9,0.4-1.4,0.6c-5.8,2.5-11.2,5.7-16.1,9.4c-0.4,0.3-0.8,0.6-1.1,0.9
		c-5,3.9-9.5,8.4-13.4,13.3c-0.3,0.4-0.6,0.8-1,1.2c-2.2,2.9-4.3,6-6.1,9.3c0.5,0.1,1,0.1,1.5,0.2c3.4-5.9,7.6-11.5,12.6-16.4
		c14.8-14.8,34.6-23,55.6-23l0-1.4c-3.5,0-7,0.2-10.3,0.7C389.1,160.7,388.6,160.8,388.2,160.9L388.2,160.9z" />
		<path
			d="M350.5,206c0.4,0.2,0.9,0.4,1.4,0.6c10.6-15.2,28.2-25.2,48.1-25.2l0-1.4C379.4,180,361.3,190.3,350.5,206L350.5,206z" />
		<path d="M368,216c0.4,0.3,0.8,0.6,1.1,0.9c7-9.4,18.2-15.4,30.9-15.4l0-1.4C386.9,200,375.2,206.3,368,216L368,216z" />
		<path
			d="M382.6,230.2c0.3,0.4,0.6,0.8,1,1.2c3.1-5.9,9.3-10,16.5-10V220C392.5,220,386,224.1,382.6,230.2L382.6,230.2z" />
		<path d="M63.5,231.4c-0.3-0.4-0.6-0.8-1-1.2c-4-5-8.4-9.4-13.4-13.3c-0.4-0.3-0.7-0.6-1.1-0.9c-5-3.7-10.4-6.9-16.1-9.4
		c-0.4-0.2-0.9-0.4-1.4-0.6c-5.9-2.4-12.2-4.2-18.7-5.2c-0.5-0.1-1-0.2-1.5-0.2C7,200.2,3.5,200,0,200v1.4c21,0,40.7,8.2,55.6,23
		c5,5,9.2,10.5,12.6,16.4c0.5-0.1,1-0.2,1.5-0.2C67.8,237.4,65.8,234.3,63.5,231.4L63.5,231.4z" />
		<path d="M0,220v1.4c19.9,0,37.5,10,48.1,25.2c0.4-0.2,0.9-0.4,1.4-0.6C38.6,230.3,20.5,220,0,220L0,220z" />
		<path d="M0,240v1.4c12.6,0,23.8,6.1,30.9,15.4c0.4-0.3,0.7-0.6,1.1-0.8C24.7,246.3,13.1,240,0,240L0,240z" />
		<path d="M0,260v1.4c7.2,0,13.4,4,16.5,10c0.3-0.4,0.6-0.8,1-1.2C14,264.1,7.5,260,0,260L0,260z" />
		<path d="M160,201.4c21,0,40.7,8.2,55.6,23c5,5,9.2,10.5,12.6,16.4c0.5-0.1,1-0.2,1.5-0.2c-1.8-3.2-3.9-6.3-6.1-9.3
		c-0.3-0.4-0.6-0.8-1-1.2c-4-5-8.4-9.4-13.4-13.3c-0.4-0.3-0.7-0.6-1.1-0.8c-5-3.7-10.4-6.9-16.1-9.4c-0.4-0.2-0.9-0.4-1.4-0.6
		c-5.9-2.4-12.2-4.2-18.7-5.2c-0.5-0.1-1-0.2-1.5-0.2c-3.4-0.4-6.8-0.7-10.3-0.7s-7,0.2-10.3,0.7c-0.5,0.1-1,0.1-1.5,0.2
		c-6.5,1-12.8,2.7-18.7,5.2c-0.4,0.2-0.9,0.4-1.4,0.6c-5.8,2.5-11.2,5.7-16.1,9.4c-0.4,0.3-0.8,0.6-1.1,0.9
		c-5,3.9-9.5,8.4-13.4,13.3c-0.3,0.4-0.6,0.8-1,1.2c-2.2,2.9-4.3,6-6.1,9.3c0.5,0.1,1,0.1,1.5,0.2c3.4-5.9,7.6-11.5,12.6-16.4
		C119.3,209.6,139,201.4,160,201.4L160,201.4z" />
		<path d="M160,221.4c19.9,0,37.5,10,48.1,25.2c0.4-0.2,0.9-0.4,1.4-0.6c-10.8-15.7-29-26-49.5-26s-38.6,10.3-49.5,26
		c0.4,0.2,0.9,0.4,1.4,0.6C122.5,231.4,140.1,221.4,160,221.4L160,221.4z" />
		<path d="M160,241.4c12.6,0,23.8,6.1,30.9,15.4c0.4-0.3,0.7-0.6,1.1-0.8c-7.3-9.7-18.9-16-32-16c-13.1,0-24.7,6.3-32,16
		c0.4,0.3,0.8,0.6,1.1,0.9C136.2,247.5,147.4,241.4,160,241.4L160,241.4z" />
		<path d="M160,261.4c7.2,0,13.4,4,16.5,10c0.3-0.4,0.6-0.8,1-1.2c-3.4-6-10-10.2-17.4-10.2s-14,4.1-17.4,10.2c0.3,0.4,0.6,0.8,1,1.2
		C146.6,265.5,152.8,261.4,160,261.4L160,261.4z" />
		<path d="M309.6,200.7c-0.5,0.1-1,0.1-1.5,0.2c-6.5,1-12.8,2.7-18.7,5.2c-0.4,0.2-0.9,0.4-1.4,0.6c-5.8,2.5-11.2,5.7-16.1,9.4
		c-0.4,0.3-0.8,0.6-1.1,0.9c-5,3.9-9.5,8.4-13.4,13.3c-0.3,0.4-0.6,0.8-1,1.2c-2.2,2.9-4.3,6-6.1,9.3c0.5,0.1,1,0.1,1.5,0.2
		c3.4-5.9,7.6-11.5,12.6-16.4c14.8-14.8,34.6-23,55.6-23c21,0,40.7,8.2,55.6,23c5,5,9.2,10.5,12.6,16.4c0.5-0.1,1-0.2,1.5-0.2
		c-1.8-3.2-3.9-6.3-6.1-9.3c-0.3-0.4-0.6-0.8-1-1.2c-4-5-8.4-9.4-13.4-13.3c-0.4-0.3-0.7-0.6-1.1-0.9c-5-3.7-10.4-6.9-16.1-9.4
		c-0.4-0.2-0.9-0.4-1.4-0.6c-5.9-2.4-12.2-4.2-18.7-5.2c-0.5-0.1-1-0.2-1.5-0.2c-3.4-0.4-6.8-0.7-10.3-0.7S313,200.2,309.6,200.7
		L309.6,200.7z" />
		<path d="M320,220c-20.5,0-38.6,10.3-49.5,26c0.4,0.2,0.9,0.4,1.4,0.6c10.6-15.2,28.2-25.2,48.1-25.2c19.9,0,37.5,10,48.1,25.2
		c0.4-0.2,0.9-0.4,1.4-0.6C358.6,230.3,340.5,220,320,220L320,220z" />
		<path d="M320,240c-13.1,0-24.7,6.3-32,16c0.4,0.3,0.8,0.6,1.1,0.9c7-9.4,18.2-15.4,30.9-15.4c12.6,0,23.8,6.1,30.9,15.4
		c0.4-0.3,0.7-0.6,1.1-0.9C344.7,246.3,333,240,320,240L320,240z" />
		<path d="M320,260c-7.5,0-14,4.1-17.4,10.2c0.3,0.4,0.6,0.8,1,1.2c3.1-5.9,9.3-10,16.5-10s13.4,4,16.5,10c0.3-0.4,0.6-0.8,1-1.2
		C334,264.1,327.4,260,320,260L320,260z" />
		<path d="M24.4,264.4c14.8-14.8,34.6-23,55.6-23c21,0,40.7,8.2,55.6,23c5,5,9.2,10.5,12.6,16.4c0.5-0.1,1-0.2,1.5-0.2
		c-1.8-3.2-3.9-6.3-6.1-9.3c-0.3-0.4-0.6-0.8-1-1.2c-4-5-8.4-9.4-13.4-13.3c-0.4-0.3-0.7-0.6-1.1-0.9c-5-3.7-10.4-6.9-16.1-9.4
		c-0.4-0.2-0.9-0.4-1.4-0.6c-5.9-2.4-12.2-4.2-18.7-5.2c-0.5-0.1-1-0.2-1.5-0.2c-3.4-0.4-6.8-0.7-10.3-0.7s-7,0.2-10.3,0.7
		c-0.5,0.1-1,0.1-1.5,0.2c-6.5,1-12.8,2.7-18.7,5.2c-0.4,0.2-0.9,0.4-1.4,0.6c-5.8,2.5-11.2,5.7-16.1,9.4c-0.4,0.3-0.8,0.6-1.1,0.9
		c-5,3.9-9.5,8.4-13.4,13.3c-0.3,0.4-0.6,0.8-1,1.2c-2.2,2.9-4.3,6-6.1,9.3c0.5,0.1,1,0.1,1.5,0.2C15.2,274.9,19.4,269.4,24.4,264.4
		L24.4,264.4z" />
		<path d="M80,261.4c19.9,0,37.5,10,48.1,25.2c0.4-0.2,0.9-0.4,1.4-0.6c-10.8-15.7-29-26-49.5-26s-38.6,10.3-49.5,26
		c0.4,0.2,0.9,0.4,1.4,0.6C42.5,271.4,60.1,261.4,80,261.4L80,261.4z" />
		<path d="M80,281.4c12.6,0,23.8,6.1,30.9,15.4c0.4-0.3,0.7-0.6,1.1-0.8c-7.3-9.7-18.9-16-32-16s-24.7,6.3-32,16
		c0.4,0.3,0.8,0.6,1.1,0.9C56.2,287.5,67.4,281.4,80,281.4L80,281.4z" />
		<path d="M80,301.4c7.2,0,13.4,4,16.5,10c0.3-0.4,0.6-0.8,1-1.2c-3.4-6-10-10.2-17.4-10.2s-14,4.1-17.4,10.2c0.3,0.4,0.6,0.8,1,1.2
		C66.6,305.5,72.8,301.4,80,301.4L80,301.4z" />
		<path d="M229.7,240.7c-0.5,0.1-1,0.1-1.5,0.2c-6.5,1-12.8,2.7-18.7,5.2c-0.4,0.2-0.9,0.4-1.4,0.6c-5.8,2.5-11.2,5.7-16.1,9.4
		c-0.4,0.3-0.8,0.6-1.1,0.9c-5,3.9-9.5,8.4-13.4,13.3c-0.3,0.4-0.6,0.8-1,1.2c-2.2,2.9-4.3,6-6.1,9.3c0.5,0.1,1,0.1,1.5,0.2
		c3.4-5.9,7.6-11.5,12.6-16.4c14.8-14.8,34.6-23,55.6-23c21,0,40.7,8.2,55.6,23c5,5,9.2,10.5,12.6,16.4c0.5-0.1,1-0.2,1.5-0.2
		c-1.8-3.2-3.9-6.3-6.1-9.3c-0.3-0.4-0.6-0.8-1-1.2c-4-5-8.4-9.4-13.4-13.3c-0.4-0.3-0.7-0.6-1.1-0.9c-5-3.7-10.4-6.9-16.1-9.4
		c-0.4-0.2-0.9-0.4-1.4-0.6c-5.9-2.4-12.2-4.2-18.7-5.2c-0.5-0.1-1-0.2-1.5-0.2c-3.4-0.4-6.8-0.7-10.3-0.7S233,240.2,229.7,240.7
		L229.7,240.7z" />
		<path d="M240,260c-20.5,0-38.6,10.3-49.5,26c0.4,0.2,0.9,0.4,1.4,0.6c10.6-15.2,28.2-25.2,48.1-25.2c19.9,0,37.5,10,48.1,25.2
		c0.4-0.2,0.9-0.4,1.4-0.6C278.6,270.3,260.5,260,240,260L240,260z" />
		<path d="M240,280c-13.1,0-24.7,6.3-32,16c0.4,0.3,0.8,0.6,1.1,0.9c7-9.4,18.2-15.4,30.9-15.4c12.6,0,23.8,6.1,30.9,15.4
		c0.4-0.3,0.7-0.6,1.1-0.9C264.7,286.3,253.1,280,240,280L240,280z" />
		<path d="M240,300c-7.5,0-14,4.1-17.4,10.2c0.3,0.4,0.6,0.8,1,1.2c3.1-5.9,9.3-10,16.5-10c7.2,0,13.4,4,16.5,10
		c0.3-0.4,0.6-0.8,1-1.2C254,304.1,247.5,300,240,300L240,300z" />
		<path d="M388.2,240.9c-6.5,1-12.8,2.7-18.7,5.2c-0.4,0.2-0.9,0.4-1.4,0.6c-5.8,2.5-11.2,5.7-16.1,9.4c-0.4,0.3-0.8,0.6-1.1,0.9
		c-5,3.9-9.5,8.4-13.4,13.3c-0.3,0.4-0.6,0.8-1,1.2c-2.2,2.9-4.3,6-6.1,9.3c0.5,0.1,1,0.1,1.5,0.2c3.4-5.9,7.6-11.5,12.6-16.4
		c14.8-14.8,34.6-23,55.6-23l0-1.4c-3.5,0-7,0.2-10.3,0.7C389.1,240.7,388.6,240.8,388.2,240.9L388.2,240.9z" />
		<path
			d="M350.5,286c0.4,0.2,0.9,0.4,1.4,0.6c10.6-15.2,28.2-25.2,48.1-25.2l0-1.4C379.4,260,361.3,270.3,350.5,286L350.5,286z" />
		<path d="M368,296c0.4,0.3,0.8,0.6,1.1,0.9c7-9.4,18.2-15.4,30.9-15.4l0-1.4C386.9,280,375.2,286.3,368,296L368,296z" />
		<path
			d="M382.6,310.2c0.3,0.4,0.6,0.8,1,1.2c3.1-5.9,9.3-10,16.5-10V300C392.5,300,386,304.1,382.6,310.2L382.6,310.2z" />
		<path d="M63.5,311.4c-0.3-0.4-0.6-0.8-1-1.2c-4-5-8.4-9.4-13.4-13.3c-0.4-0.3-0.7-0.6-1.1-0.9c-5-3.7-10.4-6.9-16.1-9.4
		c-0.4-0.2-0.9-0.4-1.4-0.6c-5.9-2.4-12.2-4.2-18.7-5.2c-0.5-0.1-1-0.2-1.5-0.2C7,280.2,3.5,280,0,280v1.4c21,0,40.7,8.2,55.6,23
		c5,5,9.2,10.5,12.6,16.4c0.5-0.1,1-0.2,1.5-0.2C67.8,317.4,65.8,314.3,63.5,311.4L63.5,311.4z" />
		<path d="M0,300v1.4c19.9,0,37.5,10,48.1,25.2c0.4-0.2,0.9-0.4,1.4-0.6C38.6,310.3,20.5,300,0,300L0,300z" />
		<path d="M0,320v1.4c12.6,0,23.8,6.1,30.9,15.4c0.4-0.3,0.7-0.6,1.1-0.8C24.7,326.3,13.1,320,0,320L0,320z" />
		<path d="M0,340v1.4c7.2,0,13.4,4,16.5,10c0.3-0.4,0.6-0.8,1-1.2C14,344.1,7.5,340,0,340L0,340z" />
		<path d="M160,281.4c21,0,40.7,8.2,55.6,23c5,5,9.2,10.5,12.6,16.4c0.5-0.1,1-0.2,1.5-0.2c-1.8-3.2-3.9-6.3-6.1-9.3
		c-0.3-0.4-0.6-0.8-1-1.2c-4-5-8.4-9.4-13.4-13.3c-0.4-0.3-0.7-0.6-1.1-0.8c-5-3.7-10.4-6.9-16.1-9.4c-0.4-0.2-0.9-0.4-1.4-0.6
		c-5.9-2.4-12.2-4.2-18.7-5.2c-0.5-0.1-1-0.2-1.5-0.2c-3.4-0.4-6.8-0.7-10.3-0.7s-7,0.2-10.3,0.7c-0.5,0.1-1,0.1-1.5,0.2
		c-6.5,1-12.8,2.7-18.7,5.2c-0.4,0.2-0.9,0.4-1.4,0.6c-5.8,2.5-11.2,5.7-16.1,9.4c-0.4,0.3-0.8,0.6-1.1,0.9
		c-5,3.9-9.5,8.4-13.4,13.3c-0.3,0.4-0.6,0.8-1,1.2c-2.2,2.9-4.3,6-6.1,9.3c0.5,0.1,1,0.1,1.5,0.2c3.4-5.9,7.6-11.5,12.6-16.4
		C119.3,289.6,139,281.4,160,281.4L160,281.4z" />
		<path d="M160,301.4c19.9,0,37.5,10,48.1,25.2c0.4-0.2,0.9-0.4,1.4-0.6c-10.8-15.7-29-26-49.5-26s-38.6,10.3-49.5,26
		c0.4,0.2,0.9,0.4,1.4,0.6C122.5,311.4,140.1,301.4,160,301.4L160,301.4z" />
		<path d="M160,321.4c12.6,0,23.8,6.1,30.9,15.4c0.4-0.3,0.7-0.6,1.1-0.8c-7.3-9.7-18.9-16-32-16c-13.1,0-24.7,6.3-32,16
		c0.4,0.3,0.8,0.6,1.1,0.9C136.2,327.5,147.4,321.4,160,321.4L160,321.4z" />
		<path d="M160,341.4c7.2,0,13.4,4,16.5,10c0.3-0.4,0.6-0.8,1-1.2c-3.4-6-10-10.2-17.4-10.2s-14,4.1-17.4,10.2c0.3,0.4,0.6,0.8,1,1.2
		C146.6,345.5,152.8,341.4,160,341.4L160,341.4z" />
		<path d="M309.6,280.7c-0.5,0.1-1,0.1-1.5,0.2c-6.5,1-12.8,2.7-18.7,5.2c-0.4,0.2-0.9,0.4-1.4,0.6c-5.8,2.5-11.2,5.7-16.1,9.4
		c-0.4,0.3-0.8,0.6-1.1,0.9c-5,3.9-9.5,8.4-13.4,13.3c-0.3,0.4-0.6,0.8-1,1.2c-2.2,2.9-4.3,6-6.1,9.3c0.5,0.1,1,0.1,1.5,0.2
		c3.4-5.9,7.6-11.5,12.6-16.4c14.8-14.8,34.6-23,55.6-23c21,0,40.7,8.2,55.6,23c5,5,9.2,10.5,12.6,16.4c0.5-0.1,1-0.2,1.5-0.2
		c-1.8-3.2-3.9-6.3-6.1-9.3c-0.3-0.4-0.6-0.8-1-1.2c-4-5-8.4-9.4-13.4-13.3c-0.4-0.3-0.7-0.6-1.1-0.9c-5-3.7-10.4-6.9-16.1-9.4
		c-0.4-0.2-0.9-0.4-1.4-0.6c-5.9-2.4-12.2-4.2-18.7-5.2c-0.5-0.1-1-0.2-1.5-0.2c-3.4-0.4-6.8-0.7-10.3-0.7S313,280.2,309.6,280.7
		L309.6,280.7z" />
		<path d="M320,300c-20.5,0-38.6,10.3-49.5,26c0.4,0.2,0.9,0.4,1.4,0.6c10.6-15.2,28.2-25.2,48.1-25.2c19.9,0,37.5,10,48.1,25.2
		c0.4-0.2,0.9-0.4,1.4-0.6C358.6,310.3,340.5,300,320,300L320,300z" />
		<path d="M320,320c-13.1,0-24.7,6.3-32,16c0.4,0.3,0.8,0.6,1.1,0.9c7-9.4,18.2-15.4,30.9-15.4c12.6,0,23.8,6.1,30.9,15.4
		c0.4-0.3,0.7-0.6,1.1-0.9C344.7,326.3,333,320,320,320L320,320z" />
		<path d="M320,340c-7.5,0-14,4.1-17.4,10.2c0.3,0.4,0.6,0.8,1,1.2c3.1-5.9,9.3-10,16.5-10s13.4,4,16.5,10c0.3-0.4,0.6-0.8,1-1.2
		C334,344.1,327.4,340,320,340L320,340z" />
		<path d="M24.4,344.4c14.8-14.8,34.6-23,55.6-23c21,0,40.7,8.2,55.6,23c5,5,9.2,10.5,12.6,16.4c0.5-0.1,1-0.2,1.5-0.2
		c-1.8-3.2-3.9-6.3-6.1-9.3c-0.3-0.4-0.6-0.8-1-1.2c-4-5-8.4-9.4-13.4-13.3c-0.4-0.3-0.7-0.6-1.1-0.9c-5-3.7-10.4-6.9-16.1-9.4
		c-0.4-0.2-0.9-0.4-1.4-0.6c-5.9-2.4-12.2-4.2-18.7-5.2c-0.5-0.1-1-0.2-1.5-0.2c-3.4-0.4-6.8-0.7-10.3-0.7s-7,0.2-10.3,0.7
		c-0.5,0.1-1,0.1-1.5,0.2c-6.5,1-12.8,2.7-18.7,5.2c-0.4,0.2-0.9,0.4-1.4,0.6c-5.8,2.5-11.2,5.7-16.1,9.4c-0.4,0.3-0.8,0.6-1.1,0.9
		c-5,3.9-9.5,8.4-13.4,13.3c-0.3,0.4-0.6,0.8-1,1.2c-2.2,2.9-4.3,6-6.1,9.3c0.5,0.1,1,0.1,1.5,0.2C15.2,354.9,19.4,349.4,24.4,344.4
		L24.4,344.4z" />
		<path d="M80,340c-20.5,0-38.6,10.3-49.5,26c0.4,0.2,0.9,0.4,1.4,0.6c10.6-15.2,28.2-25.2,48.1-25.2s37.5,10,48.1,25.2
		c0.4-0.2,0.9-0.4,1.4-0.6C118.6,350.3,100.5,340,80,340L80,340z" />
		<path d="M80,360c-13.1,0-24.7,6.3-32,16c0.4,0.3,0.8,0.6,1.1,0.9c7-9.4,18.2-15.4,30.9-15.4c12.6,0,23.8,6.1,30.9,15.4
		c0.4-0.3,0.7-0.6,1.1-0.9C104.7,366.3,93.1,360,80,360L80,360z" />
		<path d="M80,380c-7.5,0-14,4.1-17.4,10.2c0.3,0.4,0.6,0.8,1,1.2c3.1-5.9,9.3-10,16.5-10c7.2,0,13.4,4,16.5,10
		c0.3-0.4,0.6-0.8,1-1.2C94,384.1,87.5,380,80,380L80,380z" />
		<path d="M302.6,350.2c-4-5-8.4-9.4-13.4-13.3c-0.4-0.3-0.8-0.6-1.2-0.8c-5-3.7-10.4-6.9-16.1-9.4c-0.4-0.2-0.9-0.4-1.4-0.6
		c-5.9-2.4-12.2-4.2-18.7-5.2c-0.5-0.1-1-0.2-1.5-0.2c-3.4-0.4-6.8-0.7-10.3-0.7s-7,0.2-10.3,0.7c-0.5,0.1-1,0.1-1.5,0.2
		c-6.5,1-12.8,2.7-18.7,5.2c-0.4,0.2-0.9,0.4-1.4,0.6c-5.8,2.5-11.2,5.7-16.1,9.4c-0.4,0.3-0.8,0.6-1.1,0.9
		c-5,3.9-9.5,8.4-13.4,13.3c-0.3,0.4-0.6,0.8-1,1.2c-2.2,2.9-4.3,6-6.1,9.3c0.5,0.1,1,0.1,1.5,0.2c3.4-5.9,7.6-11.5,12.6-16.4
		c14.8-14.8,34.6-23,55.6-23c21,0,40.7,8.2,55.6,23c5,5,9.2,10.5,12.6,16.4c0.5-0.1,1-0.2,1.5-0.2c-1.8-3.2-3.9-6.3-6.1-9.3
		C303.2,351,302.9,350.6,302.6,350.2L302.6,350.2z" />
		<path d="M240,340c-20.5,0-38.6,10.3-49.5,26c0.4,0.2,0.9,0.4,1.4,0.6c10.6-15.2,28.2-25.2,48.1-25.2c19.9,0,37.5,10,48.1,25.2
		c0.4-0.2,0.9-0.4,1.4-0.6C278.6,350.3,260.5,340,240,340L240,340z" />
		<path d="M240,360c-13.1,0-24.7,6.3-32,16c0.4,0.3,0.8,0.6,1.1,0.9c7-9.4,18.2-15.4,30.9-15.4c12.6,0,23.8,6.1,30.9,15.4
		c0.4-0.3,0.7-0.6,1.1-0.9C264.7,366.3,253.1,360,240,360L240,360z" />
		<path d="M240,380c-7.5,0-14,4.1-17.4,10.2c0.3,0.4,0.6,0.8,1,1.2c3.1-5.9,9.3-10,16.5-10c7.2,0,13.4,4,16.5,10
		c0.3-0.4,0.6-0.8,1-1.2C254,384.1,247.5,380,240,380L240,380z" />
		<path d="M388.2,320.9c-6.5,1-12.8,2.7-18.7,5.2c-0.4,0.2-0.9,0.4-1.4,0.6c-5.8,2.5-11.2,5.7-16.1,9.4c-0.4,0.3-0.8,0.6-1.1,0.9
		c-5,3.9-9.5,8.4-13.4,13.3c-0.3,0.4-0.6,0.8-1,1.2c-2.2,2.9-4.3,6-6.1,9.3c0.5,0.1,1,0.1,1.5,0.2c3.4-5.9,7.6-11.5,12.6-16.4
		c14.8-14.8,34.6-23,55.6-23l0-1.4c-3.5,0-7,0.2-10.3,0.7C389.1,320.7,388.6,320.8,388.2,320.9L388.2,320.9z" />
		<path
			d="M350.5,366c0.4,0.2,0.9,0.4,1.4,0.6c10.6-15.2,28.2-25.2,48.1-25.2l0-1.4C379.4,340,361.3,350.3,350.5,366L350.5,366z" />
		<path d="M368,376c0.4,0.3,0.8,0.6,1.1,0.9c7-9.4,18.2-15.4,30.9-15.4l0-1.4C386.9,360,375.2,366.3,368,376L368,376z" />
		<path
			d="M382.6,390.2c0.3,0.4,0.6,0.8,1,1.2c3.1-5.9,9.3-10,16.5-10V380C392.5,380,386,384.1,382.6,390.2L382.6,390.2z" />
		<path d="M62.6,390.2c-4-5-8.4-9.4-13.4-13.3c-0.4-0.3-0.8-0.6-1.2-0.8c-5-3.7-10.4-6.9-16.1-9.4c-0.4-0.2-0.9-0.4-1.4-0.6
		c-5.9-2.4-12.2-4.2-18.7-5.2c-0.5-0.1-1-0.2-1.5-0.2C7,360.2,3.5,360,0,360v1.4c21,0,40.7,8.2,55.6,23c4.7,4.7,8.8,10,12.1,15.6
		h1.6c-1.7-3-3.6-5.9-5.8-8.6C63.2,391,62.9,390.6,62.6,390.2L62.6,390.2z" />
		<path d="M0,380v1.4c16.8,0,32,7.2,42.8,18.6h2C33.7,387.7,17.8,380,0,380L0,380z" />
		<path d="M222.6,390.2c-4-5-8.4-9.4-13.4-13.3c-0.4-0.3-0.8-0.6-1.2-0.8c-5-3.7-10.4-6.9-16.1-9.4c-0.4-0.2-0.9-0.4-1.4-0.6
		c-5.9-2.4-12.2-4.2-18.7-5.2c-0.5-0.1-1-0.2-1.5-0.2c-3.4-0.4-6.8-0.7-10.3-0.7s-7,0.2-10.3,0.7c-0.5,0.1-1,0.1-1.5,0.2
		c-6.5,1-12.8,2.7-18.7,5.2c-0.4,0.2-0.9,0.4-1.4,0.6c-5.8,2.5-11.2,5.7-16.1,9.4c-0.4,0.3-0.8,0.6-1.1,0.9
		c-5,3.9-9.5,8.4-13.4,13.3c-0.3,0.4-0.6,0.8-1,1.2c-2.1,2.7-4,5.6-5.8,8.6h1.6c3.3-5.6,7.4-10.8,12.1-15.6
		c14.8-14.8,34.6-23,55.6-23c21,0,40.7,8.2,55.6,23c4.7,4.7,8.8,10,12.1,15.6h1.6c-1.7-3-3.6-5.9-5.8-8.6
		C223.2,391,222.9,390.6,222.6,390.2L222.6,390.2z" />
		<path d="M160,380c-17.8,0-33.7,7.7-44.7,20h2c10.7-11.4,25.9-18.6,42.8-18.6s32,7.2,42.8,18.6h2C193.7,387.7,177.7,380,160,380
		L160,380z" />
		<path d="M382.6,390.2c-4-5-8.4-9.4-13.4-13.3c-0.4-0.3-0.8-0.6-1.2-0.8c-5-3.7-10.4-6.9-16.1-9.4c-0.4-0.2-0.9-0.4-1.4-0.6
		c-5.9-2.4-12.2-4.2-18.7-5.2c-0.5-0.1-1-0.2-1.5-0.2c-3.4-0.4-6.8-0.7-10.3-0.7s-7,0.2-10.3,0.7c-0.5,0.1-1,0.1-1.5,0.2
		c-6.5,1-12.8,2.7-18.7,5.2c-0.4,0.2-0.9,0.4-1.4,0.6c-5.8,2.5-11.2,5.7-16.1,9.4c-0.4,0.3-0.8,0.6-1.1,0.9
		c-5,3.9-9.5,8.4-13.4,13.3c-0.3,0.4-0.6,0.8-1,1.2c-2.1,2.7-4,5.6-5.8,8.6h1.6c3.3-5.6,7.4-10.8,12.1-15.6
		c14.8-14.8,34.6-23,55.6-23c21,0,40.7,8.2,55.6,23c4.7,4.7,8.8,10,12.1,15.6h1.6c-1.7-3-3.6-5.9-5.8-8.6
		C383.2,391,382.9,390.6,382.6,390.2L382.6,390.2z" />
		<path d="M320,380c-17.8,0-33.7,7.7-44.7,20h2c10.7-11.4,25.9-18.6,42.8-18.6c16.8,0,32,7.2,42.8,18.6h2
		C353.7,387.7,337.7,380,320,380L320,380z" />
	</g>
</svg>