<svg xmlns="http://www.w3.org/2000/svg" viewBox="0 0 560 560">
  <defs>
    <style>
      .cls-1 {
        fill: #333;
      }
    </style>
  </defs>
  <g opacity="0.5">
    <g class="cls-1">
      <path d="M.21,19.41v0h0v0ZM29,521.34q-7.29.85-14.42,1.29Q7.75,523,.21,523v17.52q7.41,0,15.35-.46t15.38-1.36h0Z" />
      <path
        d="M260.79,280c0,4.95-.17,10.07-.47,15.37s-.77,10.38-1.36,15.38l-17.39-2q.85-7.29,1.29-14.42.4-6.78.4-14.33a242.3,242.3,0,0,0-71.18-171.86A242.32,242.32,0,0,0,.22,36.91V19.45q10.1,0,20,.76,9,.67,17.72,1.95a259.36,259.36,0,0,1,39.79,9q9.64,3,19,6.71a258.88,258.88,0,0,1,48.88,25.83h0a261,261,0,0,1,38.89,32,261.91,261.91,0,0,1,32,38.91h0a258.61,258.61,0,0,1,25.83,48.88q3.72,9.3,6.72,18.94a258.33,258.33,0,0,1,9,39.8Q259.36,251,260,260,260.8,269.89,260.79,280Z" />
      <path
        d="M42.41,462.32a183.26,183.26,0,0,1-20.89,3.59,192.92,192.92,0,0,1-21.3,1.21v17.46a206,206,0,0,0,23.21-1.29,203.49,203.49,0,0,0,22.88-3.92Zm102.48-327A203.9,203.9,0,0,0,.21,75.37V92.9A186.5,186.5,0,0,1,132.5,147.7,186.5,186.5,0,0,1,187.3,280a187.47,187.47,0,0,1-1.19,21.31,181.6,181.6,0,0,1-3.57,20.9l17.05,3.9a205.57,205.57,0,0,0,3.92-22.89A206.92,206.92,0,0,0,204.82,280,203.92,203.92,0,0,0,144.89,135.31Z" />
      <path
        d="M0,131.37l3.34-.07c39.23,0,75.16,16.46,101.51,42.88a150.1,150.1,0,0,1,44,102.28l.07,3.54a148.16,148.16,0,0,1-43.54,105.11A148.2,148.2,0,0,1,.22,428.65V411.12a130.7,130.7,0,0,0,92.72-38.41A130.68,130.68,0,0,0,131.35,280v-3.14A132.61,132.61,0,0,0,92.47,186.5c-23.15-23.21-54.7-37.67-89.11-37.67H.42L0,131.37Z" />
      <path
        d="M.21,187.29a92.37,92.37,0,0,1,65.56,27.16A92.42,92.42,0,0,1,92.92,280a92.44,92.44,0,0,1-27.15,65.55A92.37,92.37,0,0,1,.21,372.71V355.18a75,75,0,0,0,53.16-22,74.93,74.93,0,0,0,22-53.16,74.92,74.92,0,0,0-22-53.16,75,75,0,0,0-53.16-22Z" />
      <path
        d="M.21,243.25a36.67,36.67,0,0,1,26,10.76,36.58,36.58,0,0,1,10.73,26,36.6,36.6,0,0,1-10.73,26,36.63,36.63,0,0,1-26,10.76V299.2a19.22,19.22,0,0,0,13.59-5.62,19.17,19.17,0,0,0,0-27.18A19.17,19.17,0,0,0,.22,260.77V243.24Z" />
    </g>

    <path
      d="M523.05,559.79c0-5-.14-9.79-.4-14.32-.28-4.75-.72-9.56-1.29-14.42l17.39-2c.59,5,1,10.12,1.35,15.38s.48,10.41.48,15.35ZM308.75,318.43q-7.29-.85-14.42-1.29-6.78-.4-14.33-.4a243.09,243.09,0,0,0-243.08,243H19.47A260.49,260.49,0,0,1,280,299.22q7.41,0,15.37.47c5.26.3,10.38.76,15.38,1.35l-2,17.39Z" />
    <path
      d="M467.13,559.79a190.68,190.68,0,0,0-1.21-21.31,186.26,186.26,0,0,0-3.58-20.89l17-3.89a203.6,203.6,0,0,1,5.21,46.09ZM322.2,377.46a183.79,183.79,0,0,0-20.9-3.57A187.15,187.15,0,0,0,92.9,559.8H75.38A204.63,204.63,0,0,1,280,355.19a205.14,205.14,0,0,1,46.1,5.23l-3.9,17.05Z" />
    <path
      d="M411.16,559.58v-2.93c0-34.42-14.48-66-37.68-89.11a132.59,132.59,0,0,0-90.35-38.88H280A131.14,131.14,0,0,0,148.87,559.78H131.34A148.65,148.65,0,0,1,280,411.13l3.55.07a150.09,150.09,0,0,1,102.27,43.95c26.41,26.35,42.89,62.28,42.89,101.51l-.08,3.34-17.46-.41Z" />
    <path d="M355.17,559.79a75.17,75.17,0,1,0-150.34,0H187.3a92.71,92.71,0,0,1,185.42,0Z" />
    <path d="M299.22,559.79a19.22,19.22,0,1,0-38.43,0H243.26a36.74,36.74,0,1,1,73.48,0H299.22Z" />

    <g class="cls-1">
      <path
        d="M559.79,92.87a193.1,193.1,0,0,0-21.31,1.21,186.26,186.26,0,0,0-20.89,3.58l-3.89-17a203.42,203.42,0,0,1,46.09-5.21V92.86ZM377.46,237.8a184.17,184.17,0,0,0-3.57,20.9,187.14,187.14,0,0,0,185.9,208.4v17.53A204.77,204.77,0,0,1,360.41,233.9l17,3.9Z" />
      <path
        d="M559.79,36.94c-5,0-9.79.14-14.32.4-4.75.28-9.56.72-14.42,1.29l-2-17.38c5-.6,10.12-1,15.38-1.36s10.41-.48,15.35-.48V36.94ZM318.43,251.24q-.85,7.29-1.29,14.42-.4,6.78-.4,14.33a243.09,243.09,0,0,0,243,243.08v17.45A260.49,260.49,0,0,1,299.22,280q0-7.41.47-15.37c.3-5.26.76-10.38,1.35-15.37l17.39,2Z" />
      <path
        d="M559.59,148.84h-2.93c-34.43,0-66,14.48-89.11,37.68a132.59,132.59,0,0,0-38.88,90.35V280A131.14,131.14,0,0,0,559.79,411.13v17.53A148.65,148.65,0,0,1,411.14,280l.07-3.55a150.14,150.14,0,0,1,44-102.28c26.35-26.4,62.28-42.88,101.51-42.88l3.34.08-.42,17.46Z" />
      <path d="M559.79,204.83a75.17,75.17,0,1,0,0,150.34V372.7a92.71,92.71,0,0,1,0-185.42Z" />
      <path d="M559.79,260.78a19.22,19.22,0,1,0,0,38.43v17.53a36.74,36.74,0,1,1,0-73.48v17.53Z" />
    </g>

    <path
      d="M523.07.21a242.32,242.32,0,0,1-71.22,171.86A242.3,242.3,0,0,1,280,243.25c-5,0-9.81-.13-14.33-.41q-3.77-.22-7.58-.57Q259.36,251,260,260c1.52.11,3.05.22,4.6.31q8,.46,15.37.47a259.78,259.78,0,0,0,184.25-76.31A259.75,259.75,0,0,0,540.53.21ZM37.36,14.53Q37,7.74,37,.21H19.43q0,7.4.47,15.34c.09,1.57.2,3.12.32,4.66q9,.67,17.72,1.95Q37.58,18.32,37.36,14.53Z" />
    <path
      d="M94.08,21.51A192.92,192.92,0,0,1,92.87.21H75.41A206.35,206.35,0,0,0,76.7,23.43c.29,2.59.64,5.17,1,7.74q9.64,3,19,6.71Q95,29.82,94.08,21.51Zm373-21.3a186.5,186.5,0,0,1-54.8,132.29A186.53,186.53,0,0,1,280,187.29a187.62,187.62,0,0,1-21.31-1.18q-8.3-.93-16.35-2.58,3.72,9.3,6.72,18.94c2.56.39,5.13.74,7.72,1A204.6,204.6,0,0,0,280,204.83a204,204,0,0,0,144.68-59.94A203.91,203.91,0,0,0,484.62.21Z" />
    <path
      d="M428.7,3.34c0,39.22-16.46,75.15-42.88,101.51a150.13,150.13,0,0,1-102.27,43.94l-3.55.08a147.91,147.91,0,0,1-63.49-14.22h0a261.91,261.91,0,0,0-32-38.91,261,261,0,0,0-38.89-32h0A148.08,148.08,0,0,1,131.35.22h17.53a130.73,130.73,0,0,0,38.41,92.72A130.7,130.7,0,0,0,280,131.35h3.14A132.59,132.59,0,0,0,373.5,92.46c23.21-23.15,37.68-54.7,37.68-89.11V.42L428.63,0Z" />
    <path
      d="M372.7.21a92.36,92.36,0,0,1-27.16,65.55A92.42,92.42,0,0,1,280,92.91a92.4,92.4,0,0,1-65.55-27.15A92.35,92.35,0,0,1,187.28.21h17.53a75,75,0,0,0,22,53.15,74.89,74.89,0,0,0,53.15,22,74.92,74.92,0,0,0,53.16-22,74.91,74.91,0,0,0,22-53.15Z" />
    <path
      d="M316.75.21a36.65,36.65,0,0,1-10.76,26,36.62,36.62,0,0,1-26,10.73,36.56,36.56,0,0,1-26-10.73,36.67,36.67,0,0,1-10.76-26H260.8a19.22,19.22,0,0,0,5.62,13.59A19.22,19.22,0,0,0,299.23.21h17.52Z" />
  </g>
</svg>